<?xml version="1.0" encoding="UTF-8" standalone="no"?>
<!DOCTYPE svg PUBLIC "-//W3C//DTD SVG 1.1//EN"
 "http://www.w3.org/Graphics/SVG/1.1/DTD/svg11.dtd">
<!-- Generated by graphviz version 2.40.1 (20161225.0304)
 -->
<!-- Title: models_diagram Pages: 1 -->
<svg width="1673pt" height="446pt"
 viewBox="0.00 0.00 1673.24 446.00" xmlns="http://www.w3.org/2000/svg" xmlns:xlink="http://www.w3.org/1999/xlink">
<g id="graph0" class="graph" transform="scale(1 1) rotate(0) translate(4 442)">
<title>models_diagram</title>
<polygon fill="transparent" stroke="transparent" points="-4,4 -4,-442 1669.2416,-442 1669.2416,4 -4,4"/>
<!-- _diagram_info -->
<g id="node1" class="node">
<title>_diagram_info</title>
<text text-anchor="start" x="229.9475" y="-423.6" font-family="Times,serif" font-size="13.00" fill="#000000">Models diagram</text>
<text text-anchor="start" x="229.9475" y="-409.6" font-family="Times,serif" font-size="13.00" fill="#000000">Date: May 26 2021 &#45; 13:57</text>
<text text-anchor="start" x="229.9475" y="-395.6" font-family="Times,serif" font-size="13.00" fill="#000000">Migration version: 20210511191040</text>
<text text-anchor="start" x="229.9475" y="-381.6" font-family="Times,serif" font-size="13.00" fill="#000000">Generated by RailRoady 1.5.3</text>
<text text-anchor="start" x="229.9475" y="-367.6" font-family="Times,serif" font-size="13.00" fill="#000000">http://railroady.prestonlee.com</text>
</g>
<!-- User -->
<g id="node2" class="node">
<title>User</title>
<ellipse fill="none" stroke="#000000" cx="423.9475" cy="-234" rx="27.0966" ry="18"/>
<text text-anchor="middle" x="423.9475" y="-230.3" font-family="Times,serif" font-size="14.00" fill="#000000">User</text>
</g>
<!-- UserPicture -->
<g id="node11" class="node">
<title>UserPicture</title>
<ellipse fill="none" stroke="#000000" cx="378.9475" cy="-162" rx="51.9908" ry="18"/>
<text text-anchor="middle" x="378.9475" y="-158.3" font-family="Times,serif" font-size="14.00" fill="#000000">UserPicture</text>
</g>
<!-- User&#45;&gt;UserPicture -->
<g id="edge1" class="edge">
<title>User&#45;&gt;UserPicture</title>
<path fill="none" stroke="#35d570" d="M409.1476,-210.3201C404.749,-203.2823 399.9039,-195.5302 395.4066,-188.3345"/>
<ellipse fill="none" stroke="#35d570" cx="411.3905" cy="-213.9088" rx="4" ry="4"/>
<polygon fill="#35d570" stroke="#35d570" points="395.2558,-188.0932 393.7718,-177.2282 392.6058,-183.8532 389.9558,-179.6132 389.9558,-179.6132 389.9558,-179.6132 392.6058,-183.8532 386.1398,-181.9982 395.2558,-188.0932 395.2558,-188.0932"/>
</g>
<!-- UserTypeLink -->
<g id="node13" class="node">
<title>UserTypeLink</title>
<ellipse fill="none" stroke="#000000" cx="510.9475" cy="-162" rx="61.99" ry="18"/>
<text text-anchor="middle" x="510.9475" y="-158.3" font-family="Times,serif" font-size="14.00" fill="#000000">UserTypeLink</text>
</g>
<!-- User&#45;&gt;UserTypeLink -->
<g id="edge2" class="edge">
<title>User&#45;&gt;UserTypeLink</title>
<path fill="none" stroke="#916704" d="M447.4337,-214.5632C458.2355,-205.6238 471.1427,-194.9419 482.4917,-185.5496"/>
<ellipse fill="none" stroke="#916704" cx="444.2175" cy="-217.2248" rx="4" ry="4"/>
<polygon fill="#916704" stroke="#916704" points="482.7239,-185.3575 493.2969,-182.4486 486.5759,-182.1696 490.4279,-178.9818 490.4279,-178.9818 490.4279,-178.9818 486.5759,-182.1696 487.5588,-175.515 482.7239,-185.3575 482.7239,-185.3575"/>
</g>
<!-- RealEstateActorLink -->
<g id="node22" class="node">
<title>RealEstateActorLink</title>
<ellipse fill="none" stroke="#000000" cx="675.9475" cy="-162" rx="85.2851" ry="18"/>
<text text-anchor="middle" x="675.9475" y="-158.3" font-family="Times,serif" font-size="14.00" fill="#000000">RealEstateActorLink</text>
</g>
<!-- User&#45;&gt;RealEstateActorLink -->
<g id="edge5" class="edge">
<title>User&#45;&gt;RealEstateActorLink</title>
<path fill="none" stroke="#b66dd8" d="M456.8821,-224.5901C496.9752,-213.1349 565.4805,-193.562 615.2282,-179.3484"/>
<ellipse fill="none" stroke="#b66dd8" cx="452.8776" cy="-225.7342" rx="4" ry="4"/>
<polygon fill="#b66dd8" stroke="#b66dd8" points="615.2984,-179.3284 626.1499,-180.908 620.106,-177.9548 624.9136,-176.5811 624.9136,-176.5811 624.9136,-176.5811 620.106,-177.9548 623.6773,-172.2543 615.2984,-179.3284 615.2984,-179.3284"/>
</g>
<!-- NeedLink -->
<g id="node24" class="node">
<title>NeedLink</title>
<ellipse fill="none" stroke="#000000" cx="824.9475" cy="-162" rx="46.2923" ry="18"/>
<text text-anchor="middle" x="824.9475" y="-158.3" font-family="Times,serif" font-size="14.00" fill="#000000">NeedLink</text>
</g>
<!-- User&#45;&gt;NeedLink -->
<g id="edge7" class="edge">
<title>User&#45;&gt;NeedLink</title>
<path fill="none" stroke="#fee0fb" d="M459.1896,-230.4038C522.167,-223.5568 657.924,-206.8866 769.9475,-180 773.5287,-179.1405 777.2119,-178.1581 780.8946,-177.1056"/>
<ellipse fill="none" stroke="#fee0fb" cx="455.1329" cy="-230.8394" rx="4" ry="4"/>
<polygon fill="#fee0fb" stroke="#fee0fb" points="780.9957,-177.0752 791.8685,-178.501 785.7834,-175.6337 790.5711,-174.1921 790.5711,-174.1921 790.5711,-174.1921 785.7834,-175.6337 789.2737,-169.8832 780.9957,-177.0752 780.9957,-177.0752"/>
</g>
<!-- UserTeamLink -->
<g id="node25" class="node">
<title>UserTeamLink</title>
<ellipse fill="none" stroke="#000000" cx="244.9475" cy="-162" rx="64.189" ry="18"/>
<text text-anchor="middle" x="244.9475" y="-158.3" font-family="Times,serif" font-size="14.00" fill="#000000">UserTeamLink</text>
</g>
<!-- User&#45;&gt;UserTeamLink -->
<g id="edge3" class="edge">
<title>User&#45;&gt;UserTeamLink</title>
<path fill="none" stroke="#7ee6c0" d="M393.4245,-220.4365C389.9005,-218.9191 386.3514,-217.4125 382.9475,-216 353.1069,-203.6172 319.3355,-190.389 292.6702,-180.1244"/>
<ellipse fill="none" stroke="#7ee6c0" cx="397.364" cy="-222.1488" rx="4" ry="4"/>
<polygon fill="#7ee6c0" stroke="#7ee6c0" points="292.5237,-180.0682 284.8011,-172.2828 287.8559,-178.276 283.1881,-176.4838 283.1881,-176.4838 283.1881,-176.4838 287.8559,-178.276 281.5751,-180.6848 292.5237,-180.0682 292.5237,-180.0682"/>
</g>
<!-- Visit -->
<g id="node30" class="node">
<title>Visit</title>
<ellipse fill="none" stroke="#000000" cx="27.9475" cy="-162" rx="27.8951" ry="18"/>
<text text-anchor="middle" x="27.9475" y="-158.3" font-family="Times,serif" font-size="14.00" fill="#000000">Visit</text>
</g>
<!-- User&#45;&gt;Visit -->
<g id="edge4" class="edge">
<title>User&#45;&gt;Visit</title>
<path fill="none" stroke="#7827d9" d="M390.5231,-225.6356C376.5066,-222.3234 359.9982,-218.6758 344.9475,-216 221.4158,-194.0379 185.1656,-215.9171 64.9475,-180 62.9968,-179.4172 61.0219,-178.7411 59.0523,-177.9996"/>
<ellipse fill="none" stroke="#7827d9" cx="394.5681" cy="-226.605" rx="4" ry="4"/>
<polygon fill="#7827d9" stroke="#7827d9" points="58.5843,-177.8001 51.1508,-169.7383 53.985,-175.8389 49.3857,-173.8777 49.3857,-173.8777 49.3857,-173.8777 53.985,-175.8389 47.6206,-178.017 58.5843,-177.8001 58.5843,-177.8001"/>
</g>
<!-- NoteLink -->
<g id="node31" class="node">
<title>NoteLink</title>
<ellipse fill="none" stroke="#000000" cx="117.9475" cy="-162" rx="44.393" ry="18"/>
<text text-anchor="middle" x="117.9475" y="-158.3" font-family="Times,serif" font-size="14.00" fill="#000000">NoteLink</text>
</g>
<!-- User&#45;&gt;NoteLink -->
<g id="edge6" class="edge">
<title>User&#45;&gt;NoteLink</title>
<path fill="none" stroke="#c486b0" d="M394.2329,-219.9494C390.4843,-218.4766 386.6613,-217.1137 382.9475,-216 291.8235,-188.6745 264.231,-203.1092 171.9475,-180 168.3318,-179.0946 164.6092,-178.0652 160.8898,-176.968"/>
<ellipse fill="none" stroke="#c486b0" cx="398.0709" cy="-221.5459" rx="4" ry="4"/>
<polygon fill="#c486b0" stroke="#c486b0" points="160.6796,-176.903 152.4589,-169.6456 155.9035,-175.4235 151.1274,-173.9441 151.1274,-173.9441 151.1274,-173.9441 155.9035,-175.4235 149.7959,-178.2426 160.6796,-176.903 160.6796,-176.903"/>
</g>
<!-- Agent -->
<g id="node3" class="node">
<title>Agent</title>
<ellipse fill="none" stroke="#000000" cx="117.9475" cy="-306" rx="32.4942" ry="18"/>
<text text-anchor="middle" x="117.9475" y="-302.3" font-family="Times,serif" font-size="14.00" fill="#000000">Agent</text>
</g>
<!-- Note -->
<g id="node28" class="node">
<title>Note</title>
<ellipse fill="none" stroke="#000000" cx="117.9475" cy="-234" rx="27.8951" ry="18"/>
<text text-anchor="middle" x="117.9475" y="-230.3" font-family="Times,serif" font-size="14.00" fill="#000000">Note</text>
</g>
<!-- Agent&#45;&gt;Note -->
<g id="edge8" class="edge">
<title>Agent&#45;&gt;Note</title>
<path fill="none" stroke="#665ccc" d="M117.9475,-279.8144C117.9475,-274.2775 117.9475,-268.4053 117.9475,-262.7785"/>
<ellipse fill="none" stroke="#665ccc" cx="117.9476" cy="-283.8314" rx="4" ry="4"/>
<polygon fill="#665ccc" stroke="#665ccc" points="117.9476,-262.4133 122.4475,-252.4132 117.9476,-257.4133 117.9475,-252.4133 117.9475,-252.4133 117.9475,-252.4133 117.9476,-257.4133 113.4475,-252.4133 117.9476,-262.4133 117.9476,-262.4133"/>
</g>
<!-- Agent&#45;&gt;Visit -->
<g id="edge9" class="edge">
<title>Agent&#45;&gt;Visit</title>
<path fill="none" stroke="#27ed22" d="M101.2334,-282.3605C94.7527,-273.0014 87.3627,-262.0869 80.9475,-252 67.4403,-230.7619 52.9992,-206.0958 42.6078,-187.9628"/>
<ellipse fill="none" stroke="#27ed22" cx="103.6942" cy="-285.8927" rx="4" ry="4"/>
<polygon fill="#27ed22" stroke="#27ed22" points="42.5236,-187.8152 41.4783,-176.8992 40.0465,-183.4719 37.5693,-179.1287 37.5693,-179.1287 37.5693,-179.1287 40.0465,-183.4719 33.6604,-181.3581 42.5236,-187.8152 42.5236,-187.8152"/>
</g>
<!-- RealEstateTypeLink -->
<g id="node4" class="node">
<title>RealEstateTypeLink</title>
<ellipse fill="none" stroke="#000000" cx="1362.9475" cy="-18" rx="83.3857" ry="18"/>
<text text-anchor="middle" x="1362.9475" y="-14.3" font-family="Times,serif" font-size="14.00" fill="#000000">RealEstateTypeLink</text>
</g>
<!-- Parking -->
<g id="node5" class="node">
<title>Parking</title>
<ellipse fill="none" stroke="#000000" cx="997.9475" cy="-234" rx="38.1938" ry="18"/>
<text text-anchor="middle" x="997.9475" y="-230.3" font-family="Times,serif" font-size="14.00" fill="#000000">Parking</text>
</g>
<!-- RealEstateActor -->
<g id="node6" class="node">
<title>RealEstateActor</title>
<ellipse fill="none" stroke="#000000" cx="1362.9475" cy="-90" rx="68.4888" ry="18"/>
<text text-anchor="middle" x="1362.9475" y="-86.3" font-family="Times,serif" font-size="14.00" fill="#000000">RealEstateActor</text>
</g>
<!-- RealEstateActor&#45;&gt;RealEstateTypeLink -->
<g id="edge10" class="edge">
<title>RealEstateActor&#45;&gt;RealEstateTypeLink</title>
<path fill="none" stroke="#287244" d="M1362.9475,-63.8144C1362.9475,-58.2775 1362.9475,-52.4053 1362.9475,-46.7785"/>
<ellipse fill="none" stroke="#287244" cx="1362.9476" cy="-67.8314" rx="4" ry="4"/>
<polygon fill="#287244" stroke="#287244" points="1362.9476,-46.4133 1367.4475,-36.4132 1362.9476,-41.4133 1362.9475,-36.4133 1362.9475,-36.4133 1362.9475,-36.4133 1362.9476,-41.4133 1358.4475,-36.4133 1362.9476,-46.4133 1362.9476,-46.4133"/>
</g>
<!-- Compagny -->
<g id="node7" class="node">
<title>Compagny</title>
<ellipse fill="none" stroke="#000000" cx="503.9475" cy="-399" rx="50.0912" ry="18"/>
<text text-anchor="middle" x="503.9475" y="-395.3" font-family="Times,serif" font-size="14.00" fill="#000000">Compagny</text>
</g>
<!-- Compagny&#45;&gt;User -->
<g id="edge12" class="edge">
<title>Compagny&#45;&gt;User</title>
<path fill="none" stroke="#9ec265" d="M472.0664,-378.4163C454.6494,-365.1995 434.6914,-346.3431 424.9475,-324 416.4885,-304.6033 416.6992,-280.5431 418.7742,-262.1811"/>
<ellipse fill="none" stroke="#9ec265" cx="475.6112" cy="-381.0128" rx="4" ry="4"/>
<polygon fill="#9ec265" stroke="#9ec265" points="418.7972,-262.0134 424.618,-252.7199 419.4786,-257.06 420.16,-252.1066 420.16,-252.1066 420.16,-252.1066 419.4786,-257.06 415.702,-251.4934 418.7972,-262.0134 418.7972,-262.0134"/>
</g>
<!-- Compagny&#45;&gt;Agent -->
<g id="edge11" class="edge">
<title>Compagny&#45;&gt;Agent</title>
<path fill="none" stroke="#1acdcb" d="M477.1969,-377.6214C467.5457,-370.9411 456.2381,-364.2219 444.9475,-360 330.7286,-317.2898 291.8458,-351.0799 172.9475,-324 167.0484,-322.6564 160.8813,-320.949 154.8987,-319.1232"/>
<ellipse fill="none" stroke="#1acdcb" cx="480.6592" cy="-380.1086" rx="4" ry="4"/>
<polygon fill="#1acdcb" stroke="#1acdcb" points="154.6085,-319.0303 146.4561,-311.6962 149.8464,-317.5062 145.0844,-315.982 145.0844,-315.982 145.0844,-315.982 149.8464,-317.5062 143.7126,-320.2679 154.6085,-319.0303 154.6085,-319.0303"/>
</g>
<!-- RealEstate -->
<g id="node8" class="node">
<title>RealEstate</title>
<ellipse fill="none" stroke="#000000" cx="874.9475" cy="-306" rx="48.1917" ry="18"/>
<text text-anchor="middle" x="874.9475" y="-302.3" font-family="Times,serif" font-size="14.00" fill="#000000">RealEstate</text>
</g>
<!-- Compagny&#45;&gt;RealEstate -->
<g id="edge13" class="edge">
<title>Compagny&#45;&gt;RealEstate</title>
<path fill="none" stroke="#fa5f1b" d="M531.0343,-377.7127C540.6407,-371.1062 551.835,-364.4093 562.9475,-360 647.2882,-326.535 752.5754,-313.7751 816.7349,-308.9327"/>
<ellipse fill="none" stroke="#fa5f1b" cx="527.603" cy="-380.1543" rx="4" ry="4"/>
<polygon fill="#fa5f1b" stroke="#fa5f1b" points="817.0826,-308.9079 827.3778,-312.6839 822.0699,-308.5516 827.0572,-308.1953 827.0572,-308.1953 827.0572,-308.1953 822.0699,-308.5516 826.7365,-303.7067 817.0826,-308.9079 817.0826,-308.9079"/>
</g>
<!-- UserType -->
<g id="node9" class="node">
<title>UserType</title>
<ellipse fill="none" stroke="#000000" cx="636.9475" cy="-306" rx="45.4919" ry="18"/>
<text text-anchor="middle" x="636.9475" y="-302.3" font-family="Times,serif" font-size="14.00" fill="#000000">UserType</text>
</g>
<!-- Compagny&#45;&gt;UserType -->
<g id="edge15" class="edge">
<title>Compagny&#45;&gt;UserType</title>
<path fill="none" stroke="#1d982a" d="M533.7378,-378.1692C555.3256,-363.074 584.4299,-342.7228 606.2291,-327.4798"/>
<ellipse fill="none" stroke="#1d982a" cx="530.3924" cy="-380.5084" rx="4" ry="4"/>
<polygon fill="#1d982a" stroke="#1d982a" points="606.2941,-327.4344 617.0681,-325.3917 610.3917,-324.5691 614.4893,-321.7039 614.4893,-321.7039 614.4893,-321.7039 610.3917,-324.5691 611.9106,-318.016 606.2941,-327.4344 606.2941,-327.4344"/>
</g>
<!-- Sector -->
<g id="node12" class="node">
<title>Sector</title>
<ellipse fill="none" stroke="#000000" cx="1429.9475" cy="-234" rx="33.2948" ry="18"/>
<text text-anchor="middle" x="1429.9475" y="-230.3" font-family="Times,serif" font-size="14.00" fill="#000000">Sector</text>
</g>
<!-- Compagny&#45;&gt;Sector -->
<g id="edge14" class="edge">
<title>Compagny&#45;&gt;Sector</title>
<path fill="none" stroke="#8fc7a4" d="M530.3806,-377.5643C540.0764,-370.8109 551.493,-364.0605 562.9475,-360 718.2567,-304.9448 768.4944,-344.8588 931.9475,-324 1135.4744,-298.0272 1190.803,-308.8492 1387.9475,-252 1390.4153,-251.2884 1392.9306,-250.4689 1395.442,-249.5801"/>
<ellipse fill="none" stroke="#8fc7a4" cx="526.8874" cy="-380.0964" rx="4" ry="4"/>
<polygon fill="#8fc7a4" stroke="#8fc7a4" points="1395.6705,-249.492 1406.6202,-250.0892 1400.3351,-247.6915 1404.9998,-245.8911 1404.9998,-245.8911 1404.9998,-245.8911 1400.3351,-247.6915 1403.3793,-241.6929 1395.6705,-249.492 1395.6705,-249.492"/>
</g>
<!-- RealEstateSellType -->
<g id="node21" class="node">
<title>RealEstateSellType</title>
<ellipse fill="none" stroke="#000000" cx="261.9475" cy="-306" rx="79.8859" ry="18"/>
<text text-anchor="middle" x="261.9475" y="-302.3" font-family="Times,serif" font-size="14.00" fill="#000000">RealEstateSellType</text>
</g>
<!-- Compagny&#45;&gt;RealEstateSellType -->
<g id="edge17" class="edge">
<title>Compagny&#45;&gt;RealEstateSellType</title>
<path fill="none" stroke="#e1817c" d="M475.827,-377.9557C466.3642,-371.5539 455.5181,-364.9186 444.9475,-360 408.2989,-342.9472 365.0088,-329.8819 329.7357,-320.8774"/>
<ellipse fill="none" stroke="#e1817c" cx="479.1623" cy="-380.2686" rx="4" ry="4"/>
<polygon fill="#e1817c" stroke="#e1817c" points="329.7129,-320.8717 321.1036,-314.0798 324.8623,-319.6586 320.0117,-318.4454 320.0117,-318.4454 320.0117,-318.4454 324.8623,-319.6586 318.9199,-322.8109 329.7129,-320.8717 329.7129,-320.8717"/>
</g>
<!-- RealEstatesType -->
<g id="node33" class="node">
<title>RealEstatesType</title>
<ellipse fill="none" stroke="#000000" cx="503.9475" cy="-306" rx="69.5877" ry="18"/>
<text text-anchor="middle" x="503.9475" y="-302.3" font-family="Times,serif" font-size="14.00" fill="#000000">RealEstatesType</text>
</g>
<!-- Compagny&#45;&gt;RealEstatesType -->
<g id="edge16" class="edge">
<title>Compagny&#45;&gt;RealEstatesType</title>
<path fill="none" stroke="#28bee8" d="M503.9475,-372.4432C503.9475,-360.4479 503.9475,-346.268 503.9475,-334.0949"/>
<ellipse fill="none" stroke="#28bee8" cx="503.9476" cy="-376.6262" rx="4" ry="4"/>
<polygon fill="#28bee8" stroke="#28bee8" points="503.9476,-334.0192 508.4475,-324.0191 503.9476,-329.0192 503.9475,-324.0192 503.9475,-324.0192 503.9475,-324.0192 503.9476,-329.0192 499.4475,-324.0192 503.9476,-334.0192 503.9476,-334.0192"/>
</g>
<!-- RealEstate&#45;&gt;User -->
<g id="edge26" class="edge">
<title>RealEstate&#45;&gt;User</title>
<path fill="none" stroke="#d4cf1f" d="M820.5369,-297.3136C727.416,-282.4473 539.8808,-252.5082 460.6317,-239.8564"/>
<polygon fill="#d4cf1f" stroke="#d4cf1f" points="820.5947,-297.3227 829.7602,-303.343 825.5321,-298.111 830.4696,-298.8993 830.4696,-298.8993 830.4696,-298.8993 825.5321,-298.111 831.1791,-294.4556 820.5947,-297.3227 820.5947,-297.3227"/>
<polygon fill="#d4cf1f" stroke="#d4cf1f" points="460.5055,-239.8364 451.34,-233.8161 455.568,-239.0481 450.6305,-238.2598 450.6305,-238.2598 450.6305,-238.2598 455.568,-239.0481 449.921,-242.7035 460.5055,-239.8364 460.5055,-239.8364"/>
</g>
<!-- RealEstate&#45;&gt;RealEstateTypeLink -->
<g id="edge23" class="edge">
<title>RealEstate&#45;&gt;RealEstateTypeLink</title>
<path fill="none" stroke="#47c62e" d="M917.0801,-290.8166C920.7291,-289.7685 924.3866,-288.8091 927.9475,-288 993.4237,-273.1233 1176.1304,-294.7016 1227.9475,-252 1292.8111,-198.5471 1236.0596,-139.6439 1285.9475,-72 1295.239,-59.4015 1308.3709,-48.6656 1321.1635,-40.1642"/>
<ellipse fill="none" stroke="#47c62e" cx="912.9731" cy="-292.0654" rx="4" ry="4"/>
<polygon fill="#47c62e" stroke="#47c62e" points="1321.4581,-39.9782 1332.3164,-38.4454 1325.6862,-37.3092 1329.9142,-34.6401 1329.9142,-34.6401 1329.9142,-34.6401 1325.6862,-37.3092 1327.5121,-30.8349 1321.4581,-39.9782 1321.4581,-39.9782"/>
</g>
<!-- RealEstate&#45;&gt;Parking -->
<g id="edge19" class="edge">
<title>RealEstate&#45;&gt;Parking</title>
<path fill="none" stroke="#fe61a4" d="M908.0853,-286.6023C925.6631,-276.3128 947.1991,-263.7064 964.7812,-253.4144"/>
<ellipse fill="none" stroke="#fe61a4" cx="904.4847" cy="-288.7099" rx="4" ry="4"/>
<polygon fill="#fe61a4" stroke="#fe61a4" points="964.943,-253.3197 975.8465,-252.1515 969.2581,-250.7938 973.5732,-248.2679 973.5732,-248.2679 973.5732,-248.2679 969.2581,-250.7938 971.2999,-244.3843 964.943,-253.3197 964.943,-253.3197"/>
</g>
<!-- RealEstatePicture -->
<g id="node10" class="node">
<title>RealEstatePicture</title>
<ellipse fill="none" stroke="#000000" cx="1127.9475" cy="-234" rx="73.387" ry="18"/>
<text text-anchor="middle" x="1127.9475" y="-230.3" font-family="Times,serif" font-size="14.00" fill="#000000">RealEstatePicture</text>
</g>
<!-- RealEstate&#45;&gt;RealEstatePicture -->
<g id="edge20" class="edge">
<title>RealEstate&#45;&gt;RealEstatePicture</title>
<path fill="none" stroke="#8b7888" d="M921.2044,-292.836C963.0477,-280.928 1024.8405,-263.3427 1069.9696,-250.4997"/>
<ellipse fill="none" stroke="#8b7888" cx="917.22" cy="-293.9698" rx="4" ry="4"/>
<polygon fill="#8b7888" stroke="#8b7888" points="1070.0019,-250.4905 1080.8518,-252.0814 1074.811,-249.1219 1079.62,-247.7533 1079.62,-247.7533 1079.62,-247.7533 1074.811,-249.1219 1078.3883,-243.4251 1070.0019,-250.4905 1070.0019,-250.4905"/>
</g>
<!-- RealEstate&#45;&gt;Sector -->
<g id="edge28" class="edge">
<title>RealEstate&#45;&gt;Sector</title>
<path fill="none" stroke="#e6a4cc" d="M932.5657,-302.1182C1047.8452,-293.9937 1303.0891,-274.11 1387.9475,-252 1390.4329,-251.3524 1392.9613,-250.5808 1395.4823,-249.7268"/>
<polygon fill="#e6a4cc" stroke="#e6a4cc" points="932.4945,-302.1231 922.2046,-298.3324 927.5067,-302.4722 922.5189,-302.8214 922.5189,-302.8214 922.5189,-302.8214 927.5067,-302.4722 922.8331,-307.3104 932.4945,-302.1231 932.4945,-302.1231"/>
<polygon fill="#e6a4cc" stroke="#e6a4cc" points="1395.7044,-249.643 1406.6491,-250.3234 1400.3825,-247.8781 1405.0607,-246.1131 1405.0607,-246.1131 1405.0607,-246.1131 1400.3825,-247.8781 1403.4722,-241.9028 1395.7044,-249.643 1395.7044,-249.643"/>
</g>
<!-- Building -->
<g id="node15" class="node">
<title>Building</title>
<ellipse fill="none" stroke="#000000" cx="1336.9475" cy="-234" rx="41.6928" ry="18"/>
<text text-anchor="middle" x="1336.9475" y="-230.3" font-family="Times,serif" font-size="14.00" fill="#000000">Building</text>
</g>
<!-- RealEstate&#45;&gt;Building -->
<g id="edge18" class="edge">
<title>RealEstate&#45;&gt;Building</title>
<path fill="none" stroke="#8e7c47" d="M930.6458,-301.7653C1009.3978,-295.0623 1157.4633,-279.8228 1280.9475,-252 1285.5613,-250.9604 1290.3386,-249.7079 1295.0691,-248.3535"/>
<ellipse fill="none" stroke="#8e7c47" cx="926.3039" cy="-302.1297" rx="4" ry="4"/>
<polygon fill="#8e7c47" stroke="#8e7c47" points="1295.0719,-248.3527 1305.9452,-249.7743 1299.859,-246.9093 1304.6461,-245.4658 1304.6461,-245.4658 1304.6461,-245.4658 1299.859,-246.9093 1303.347,-241.1574 1295.0719,-248.3527 1295.0719,-248.3527"/>
</g>
<!-- SectorLink -->
<g id="node18" class="node">
<title>SectorLink</title>
<ellipse fill="none" stroke="#000000" cx="1188.9475" cy="-162" rx="50.0912" ry="18"/>
<text text-anchor="middle" x="1188.9475" y="-158.3" font-family="Times,serif" font-size="14.00" fill="#000000">SectorLink</text>
</g>
<!-- RealEstate&#45;&gt;SectorLink -->
<g id="edge27" class="edge">
<title>RealEstate&#45;&gt;SectorLink</title>
<path fill="none" stroke="#82cf80" d="M930.0162,-301.0056C1020.3976,-292.2473 1192.0287,-273.0385 1209.9475,-252 1224.946,-234.3902 1216.3915,-208.0715 1206.0553,-188.4377"/>
<ellipse fill="none" stroke="#82cf80" cx="925.7779" cy="-301.4126" rx="4" ry="4"/>
<polygon fill="#82cf80" stroke="#82cf80" points="1206.0211,-188.3772 1205.0135,-177.4577 1203.559,-184.0254 1201.0968,-179.6736 1201.0968,-179.6736 1201.0968,-179.6736 1203.559,-184.0254 1197.1802,-181.8895 1206.0211,-188.3772 1206.0211,-188.3772"/>
</g>
<!-- RealEstate&#45;&gt;RealEstateActorLink -->
<g id="edge25" class="edge">
<title>RealEstate&#45;&gt;RealEstateActorLink</title>
<path fill="none" stroke="#aa73ca" d="M848.8562,-284.1509C826.1218,-265.4188 792.0181,-238.0471 760.9475,-216 745.572,-205.0898 728.0677,-193.7895 712.9561,-184.3635"/>
<ellipse fill="none" stroke="#aa73ca" cx="852.1599" cy="-286.883" rx="4" ry="4"/>
<polygon fill="#aa73ca" stroke="#aa73ca" points="712.8718,-184.3113 706.7382,-175.2213 708.6206,-181.6794 704.3694,-179.0474 704.3694,-179.0474 704.3694,-179.0474 708.6206,-181.6794 702.0006,-182.8735 712.8718,-184.3113 712.8718,-184.3113"/>
</g>
<!-- RealEstate&#45;&gt;NeedLink -->
<g id="edge30" class="edge">
<title>RealEstate&#45;&gt;NeedLink</title>
<path fill="none" stroke="#602788" d="M854.5457,-282.2836C847.8901,-273.3368 841.1407,-262.7192 836.9475,-252 829.255,-232.335 826.3273,-208.6072 825.2841,-190.453"/>
<ellipse fill="none" stroke="#602788" cx="857.1234" cy="-285.6114" rx="4" ry="4"/>
<polygon fill="#602788" stroke="#602788" points="825.2741,-190.2103 829.3551,-180.0321 825.0666,-185.2146 824.859,-180.2189 824.859,-180.2189 824.859,-180.2189 825.0666,-185.2146 820.3629,-180.4057 825.2741,-190.2103 825.2741,-190.2103"/>
</g>
<!-- Plan -->
<g id="node29" class="node">
<title>Plan</title>
<ellipse fill="none" stroke="#000000" cx="724.9475" cy="-234" rx="27" ry="18"/>
<text text-anchor="middle" x="724.9475" y="-230.3" font-family="Times,serif" font-size="14.00" fill="#000000">Plan</text>
</g>
<!-- RealEstate&#45;&gt;Plan -->
<g id="edge21" class="edge">
<title>RealEstate&#45;&gt;Plan</title>
<path fill="none" stroke="#86af0c" d="M837.9381,-288.2355C812.9261,-276.2297 780.2543,-260.5472 756.4806,-249.1359"/>
<ellipse fill="none" stroke="#86af0c" cx="841.7063" cy="-290.0442" rx="4" ry="4"/>
<polygon fill="#86af0c" stroke="#86af0c" points="756.2194,-249.0106 749.1515,-240.6263 751.7118,-246.8469 747.2042,-244.6832 747.2042,-244.6832 747.2042,-244.6832 751.7118,-246.8469 745.2569,-248.74 756.2194,-249.0106 756.2194,-249.0106"/>
</g>
<!-- RealEstate&#45;&gt;Visit -->
<g id="edge22" class="edge">
<title>RealEstate&#45;&gt;Visit</title>
<path fill="none" stroke="#bdaa06" d="M819.9746,-300.5263C684.9217,-287.0627 347.5916,-253.3271 344.9475,-252 325.5489,-242.2632 331.1313,-226.1534 311.9475,-216 213.8965,-164.1044 170.9711,-212.6523 64.9475,-180 63.0018,-179.4008 61.0308,-178.7119 59.0641,-177.9607"/>
<ellipse fill="none" stroke="#bdaa06" cx="824.2062" cy="-300.9481" rx="4" ry="4"/>
<polygon fill="#bdaa06" stroke="#bdaa06" points="58.5939,-177.7588 51.1812,-169.6779 53.9997,-175.7858 49.4054,-173.8127 49.4054,-173.8127 49.4054,-173.8127 53.9997,-175.7858 47.6296,-177.9475 58.5939,-177.7588 58.5939,-177.7588"/>
</g>
<!-- RealEstate&#45;&gt;NoteLink -->
<g id="edge29" class="edge">
<title>RealEstate&#45;&gt;NoteLink</title>
<path fill="none" stroke="#5ef1a6" d="M820.5186,-300.3809C695.5168,-287.421 397.8269,-256.2204 387.9475,-252 365.0268,-242.2084 367.3789,-226.8659 344.9475,-216 274.2674,-181.7623 247.7736,-200.4524 171.9475,-180 168.3994,-179.043 164.7426,-177.9842 161.0836,-176.8733"/>
<ellipse fill="none" stroke="#5ef1a6" cx="824.5189" cy="-300.7954" rx="4" ry="4"/>
<polygon fill="#5ef1a6" stroke="#5ef1a6" points="161.0045,-176.8485 152.8173,-169.5533 156.2353,-175.347 151.466,-173.8456 151.466,-173.8456 151.466,-173.8456 156.2353,-175.347 150.1147,-178.1379 161.0045,-176.8485 161.0045,-176.8485"/>
</g>
<!-- RealEstateSellTypeLink -->
<g id="node32" class="node">
<title>RealEstateSellTypeLink</title>
<ellipse fill="none" stroke="#000000" cx="1023.9475" cy="-162" rx="96.6831" ry="18"/>
<text text-anchor="middle" x="1023.9475" y="-158.3" font-family="Times,serif" font-size="14.00" fill="#000000">RealEstateSellTypeLink</text>
</g>
<!-- RealEstate&#45;&gt;RealEstateSellTypeLink -->
<g id="edge24" class="edge">
<title>RealEstate&#45;&gt;RealEstateSellTypeLink</title>
<path fill="none" stroke="#e680b7" d="M892.9015,-281.7659C907.4912,-262.8463 929.1569,-236.4313 950.9475,-216 962.6271,-205.049 976.5292,-194.2879 989.052,-185.2896"/>
<ellipse fill="none" stroke="#e680b7" cx="890.2862" cy="-285.1924" rx="4" ry="4"/>
<polygon fill="#e680b7" stroke="#e680b7" points="989.2853,-185.1251 1000.0508,-183.0383 993.3712,-182.243 997.457,-179.361 997.457,-179.361 997.457,-179.361 993.3712,-182.243 994.8632,-175.6838 989.2853,-185.1251 989.2853,-185.1251"/>
</g>
<!-- UserType&#45;&gt;UserTypeLink -->
<g id="edge31" class="edge">
<title>UserType&#45;&gt;UserTypeLink</title>
<path fill="none" stroke="#517d92" d="M616.5841,-282.7275C593.7135,-256.5897 556.7183,-214.3095 533.1295,-187.3508"/>
<ellipse fill="none" stroke="#517d92" cx="619.3648" cy="-285.9055" rx="4" ry="4"/>
<polygon fill="#517d92" stroke="#517d92" points="532.8547,-187.0368 529.6563,-176.5477 529.5622,-183.2739 526.2697,-179.511 526.2697,-179.511 526.2697,-179.511 529.5622,-183.2739 522.8831,-182.4743 532.8547,-187.0368 532.8547,-187.0368"/>
</g>
<!-- Sector&#45;&gt;SectorLink -->
<g id="edge32" class="edge">
<title>Sector&#45;&gt;SectorLink</title>
<path fill="none" stroke="#ba312a" d="M1396.9598,-219.3521C1393.9338,-218.1635 1390.8976,-217.0268 1387.9475,-216 1339.0146,-198.969 1281.8032,-183.935 1241.3152,-174.0836"/>
<ellipse fill="none" stroke="#ba312a" cx="1400.7006" cy="-220.8734" rx="4" ry="4"/>
<polygon fill="#ba312a" stroke="#ba312a" points="1241.1187,-174.0363 1232.4518,-167.318 1236.2579,-172.8645 1231.3972,-171.6927 1231.3972,-171.6927 1231.3972,-171.6927 1236.2579,-172.8645 1230.3425,-176.0673 1241.1187,-174.0363 1241.1187,-174.0363"/>
</g>
<!-- Region -->
<g id="node14" class="node">
<title>Region</title>
<ellipse fill="none" stroke="#000000" cx="1429.9475" cy="-306" rx="36.2938" ry="18"/>
<text text-anchor="middle" x="1429.9475" y="-302.3" font-family="Times,serif" font-size="14.00" fill="#000000">Region</text>
</g>
<!-- Region&#45;&gt;Sector -->
<g id="edge33" class="edge">
<title>Region&#45;&gt;Sector</title>
<path fill="none" stroke="#44fe5b" d="M1429.9475,-279.8144C1429.9475,-274.2775 1429.9475,-268.4053 1429.9475,-262.7785"/>
<ellipse fill="none" stroke="#44fe5b" cx="1429.9476" cy="-283.8314" rx="4" ry="4"/>
<polygon fill="#44fe5b" stroke="#44fe5b" points="1429.9476,-262.4133 1434.4475,-252.4132 1429.9476,-257.4133 1429.9475,-252.4133 1429.9475,-252.4133 1429.9475,-252.4133 1429.9476,-257.4133 1425.4475,-252.4133 1429.9476,-262.4133 1429.9476,-262.4133"/>
</g>
<!-- Floor -->
<g id="node26" class="node">
<title>Floor</title>
<ellipse fill="none" stroke="#000000" cx="1409.9475" cy="-162" rx="29.795" ry="18"/>
<text text-anchor="middle" x="1409.9475" y="-158.3" font-family="Times,serif" font-size="14.00" fill="#000000">Floor</text>
</g>
<!-- Building&#45;&gt;Floor -->
<g id="edge34" class="edge">
<title>Building&#45;&gt;Floor</title>
<path fill="none" stroke="#26be87" d="M1359.8324,-211.4286C1368.4488,-202.9302 1378.2469,-193.2664 1386.8799,-184.7516"/>
<ellipse fill="none" stroke="#26be87" cx="1356.7266" cy="-214.4919" rx="4" ry="4"/>
<polygon fill="#26be87" stroke="#26be87" points="1386.9879,-184.6451 1397.2676,-180.8268 1390.5478,-181.134 1394.1076,-177.6229 1394.1076,-177.6229 1394.1076,-177.6229 1390.5478,-181.134 1390.9476,-174.4191 1386.9879,-184.6451 1386.9879,-184.6451"/>
</g>
<!-- Room -->
<g id="node16" class="node">
<title>Room</title>
<ellipse fill="none" stroke="#000000" cx="1481.9475" cy="-90" rx="32.4942" ry="18"/>
<text text-anchor="middle" x="1481.9475" y="-86.3" font-family="Times,serif" font-size="14.00" fill="#000000">Room</text>
</g>
<!-- Room&#45;&gt;RealEstateTypeLink -->
<g id="edge35" class="edge">
<title>Room&#45;&gt;RealEstateTypeLink</title>
<path fill="none" stroke="#ab71eb" d="M1452.698,-72.3028C1436.747,-62.6518 1416.8442,-50.6097 1399.8368,-40.3195"/>
<ellipse fill="none" stroke="#ab71eb" cx="1456.4211" cy="-74.5554" rx="4" ry="4"/>
<polygon fill="#ab71eb" stroke="#ab71eb" points="1399.799,-40.2967 1393.5727,-31.2699 1395.5211,-37.7084 1391.2432,-35.1201 1391.2432,-35.1201 1391.2432,-35.1201 1395.5211,-37.7084 1388.9137,-38.9702 1399.799,-40.2967 1399.799,-40.2967"/>
</g>
<!-- Need -->
<g id="node17" class="node">
<title>Need</title>
<ellipse fill="none" stroke="#000000" cx="874.9475" cy="-234" rx="29.4969" ry="18"/>
<text text-anchor="middle" x="874.9475" y="-230.3" font-family="Times,serif" font-size="14.00" fill="#000000">Need</text>
</g>
<!-- Need&#45;&gt;RealEstateTypeLink -->
<g id="edge38" class="edge">
<title>Need&#45;&gt;RealEstateTypeLink</title>
<path fill="none" stroke="#2547b4" d="M881.03,-208.1406C887.0961,-187.892 898.3993,-160.4821 917.9475,-144 974.1091,-96.6474 1177.3269,-52.6155 1288.6907,-31.3487"/>
<ellipse fill="none" stroke="#2547b4" cx="879.892" cy="-212.2031" rx="4" ry="4"/>
<polygon fill="#2547b4" stroke="#2547b4" points="1288.6914,-31.3486 1299.3546,-33.9071 1293.6039,-30.4172 1298.5164,-29.4858 1298.5164,-29.4858 1298.5164,-29.4858 1293.6039,-30.4172 1297.6781,-25.0646 1288.6914,-31.3486 1288.6914,-31.3486"/>
</g>
<!-- Need&#45;&gt;SectorLink -->
<g id="edge36" class="edge">
<title>Need&#45;&gt;SectorLink</title>
<path fill="none" stroke="#820550" d="M910.4315,-225.3314C923.1849,-222.2858 937.6914,-218.9019 950.9475,-216 1030.2188,-198.6465 1051.2676,-199.8635 1129.9475,-180 1133.752,-179.0395 1137.6762,-177.9852 1141.6077,-176.8837"/>
<ellipse fill="none" stroke="#820550" cx="906.2241" cy="-226.3415" rx="4" ry="4"/>
<polygon fill="#820550" stroke="#820550" points="1141.7246,-176.85 1152.5807,-178.3979 1146.5282,-175.4623 1151.3318,-174.0746 1151.3318,-174.0746 1151.3318,-174.0746 1146.5282,-175.4623 1150.0829,-169.7514 1141.7246,-176.85 1141.7246,-176.85"/>
</g>
<!-- Need&#45;&gt;NeedLink -->
<g id="edge39" class="edge">
<title>Need&#45;&gt;NeedLink</title>
<path fill="none" stroke="#5634e5" d="M858.7053,-210.6112C853.6752,-203.3678 848.1036,-195.3447 842.9609,-187.9392"/>
<ellipse fill="none" stroke="#5634e5" cx="861.0692" cy="-214.0153" rx="4" ry="4"/>
<polygon fill="#5634e5" stroke="#5634e5" points="842.8829,-187.8269 840.8751,-177.0464 840.0309,-183.72 837.1789,-179.6132 837.1789,-179.6132 837.1789,-179.6132 840.0309,-183.72 833.4827,-182.18 842.8829,-187.8269 842.8829,-187.8269"/>
</g>
<!-- Need&#45;&gt;RealEstateSellTypeLink -->
<g id="edge37" class="edge">
<title>Need&#45;&gt;RealEstateSellTypeLink</title>
<path fill="none" stroke="#d6b806" d="M905.7311,-219.1247C927.1031,-208.7973 955.9025,-194.8808 979.7248,-183.3693"/>
<ellipse fill="none" stroke="#d6b806" cx="901.8303" cy="-221.0096" rx="4" ry="4"/>
<polygon fill="#d6b806" stroke="#d6b806" points="979.9156,-183.2772 990.8774,-182.978 984.4176,-181.1018 988.9195,-178.9263 988.9195,-178.9263 988.9195,-178.9263 984.4176,-181.1018 986.9616,-174.8745 979.9156,-183.2772 979.9156,-183.2772"/>
</g>
<!-- RealEstateType -->
<g id="node19" class="node">
<title>RealEstateType</title>
<ellipse fill="none" stroke="#000000" cx="1598.9475" cy="-90" rx="66.0889" ry="18"/>
<text text-anchor="middle" x="1598.9475" y="-86.3" font-family="Times,serif" font-size="14.00" fill="#000000">RealEstateType</text>
</g>
<!-- RealEstateType&#45;&gt;RealEstateTypeLink -->
<g id="edge40" class="edge">
<title>RealEstateType&#45;&gt;RealEstateTypeLink</title>
<path fill="none" stroke="#59b310" d="M1546.958,-74.1388C1509.8295,-62.8114 1459.846,-47.5623 1421.3436,-35.8158"/>
<ellipse fill="none" stroke="#59b310" cx="1551.0087" cy="-75.3746" rx="4" ry="4"/>
<polygon fill="#59b310" stroke="#59b310" points="1420.8789,-35.6741 1412.6273,-28.4518 1416.0965,-34.215 1411.3141,-32.7559 1411.3141,-32.7559 1411.3141,-32.7559 1416.0965,-34.215 1410.001,-37.0601 1420.8789,-35.6741 1420.8789,-35.6741"/>
</g>
<!-- Favorite -->
<g id="node20" class="node">
<title>Favorite</title>
<ellipse fill="none" stroke="#000000" cx="611.9475" cy="-399" rx="40.0939" ry="18"/>
<text text-anchor="middle" x="611.9475" y="-395.3" font-family="Times,serif" font-size="14.00" fill="#000000">Favorite</text>
</g>
<!-- SellTypeLink -->
<g id="node34" class="node">
<title>SellTypeLink</title>
<ellipse fill="none" stroke="#000000" cx="243.9475" cy="-234" rx="59.2899" ry="18"/>
<text text-anchor="middle" x="243.9475" y="-230.3" font-family="Times,serif" font-size="14.00" fill="#000000">SellTypeLink</text>
</g>
<!-- RealEstateSellType&#45;&gt;SellTypeLink -->
<g id="edge41" class="edge">
<title>RealEstateSellType&#45;&gt;SellTypeLink</title>
<path fill="none" stroke="#8dc11f" d="M255.4011,-279.8144C253.9814,-274.1355 252.4735,-268.1039 251.034,-262.3461"/>
<ellipse fill="none" stroke="#8dc11f" cx="256.4352" cy="-283.9508" rx="4" ry="4"/>
<polygon fill="#8dc11f" stroke="#8dc11f" points="250.9763,-262.1147 252.9165,-251.3218 249.7636,-257.264 248.5508,-252.4133 248.5508,-252.4133 248.5508,-252.4133 249.7636,-257.264 244.1852,-253.5047 250.9763,-262.1147 250.9763,-262.1147"/>
</g>
<!-- ApplicationRecord -->
<g id="node23" class="node">
<title>ApplicationRecord</title>
<ellipse fill="none" stroke="#000000" cx="747.9475" cy="-399" rx="77.1866" ry="18"/>
<text text-anchor="middle" x="747.9475" y="-395.3" font-family="Times,serif" font-size="14.00" fill="#000000">ApplicationRecord</text>
</g>
<!-- Floor&#45;&gt;Room -->
<g id="edge42" class="edge">
<title>Floor&#45;&gt;Room</title>
<path fill="none" stroke="#fc9d6e" d="M1431.4455,-140.502C1439.9842,-131.9634 1449.8297,-122.1178 1458.5473,-113.4003"/>
<ellipse fill="none" stroke="#fc9d6e" cx="1428.3989" cy="-143.5486" rx="4" ry="4"/>
<polygon fill="#fc9d6e" stroke="#fc9d6e" points="1458.7854,-113.1621 1469.0385,-109.273 1462.321,-109.6265 1465.8565,-106.091 1465.8565,-106.091 1465.8565,-106.091 1462.321,-109.6265 1462.6745,-102.909 1458.7854,-113.1621 1458.7854,-113.1621"/>
</g>
<!-- UserTeam -->
<g id="node27" class="node">
<title>UserTeam</title>
<ellipse fill="none" stroke="#000000" cx="890.9475" cy="-399" rx="48.1917" ry="18"/>
<text text-anchor="middle" x="890.9475" y="-395.3" font-family="Times,serif" font-size="14.00" fill="#000000">UserTeam</text>
</g>
<!-- Note&#45;&gt;NoteLink -->
<g id="edge43" class="edge">
<title>Note&#45;&gt;NoteLink</title>
<path fill="none" stroke="#d06f2f" d="M117.9475,-207.8144C117.9475,-202.2775 117.9475,-196.4053 117.9475,-190.7785"/>
<ellipse fill="none" stroke="#d06f2f" cx="117.9476" cy="-211.8314" rx="4" ry="4"/>
<polygon fill="#d06f2f" stroke="#d06f2f" points="117.9476,-190.4133 122.4475,-180.4132 117.9476,-185.4133 117.9475,-180.4133 117.9475,-180.4133 117.9475,-180.4133 117.9476,-185.4133 113.4475,-180.4133 117.9476,-190.4133 117.9476,-190.4133"/>
</g>
</g>
</svg>
